<svg width="30" height="30" viewBox="0 0 36 36" fill="none" xmlns="http://www.w3.org/2000/svg">
<path d="M29.4618 7.96908C29.0668 7.73908 28.5478 7.63208 27.8288 7.63208C22.2478 7.63208 3.24677 14.7201 2.44077 15.0221C2.26355 15.0881 2.10883 15.2032 1.99477 15.3541C0.754773 16.9881 0.999773 23.0001 2.99977 26.0001C5.75477 30.1331 9.82077 31.3041 11.7778 31.4951C11.8098 31.4981 11.8858 31.5021 11.9178 31.5021C14.3758 31.5021 30.2498 20.7411 31.4418 18.2681C32.8128 15.4251 32.7228 9.86808 29.4618 7.96908Z" fill="#EEEEEE"/>
<path d="M25.9998 9.99999C21.9998 13 12.9998 19 12.9998 19C12.2858 21.141 11.0768 27.343 12.2518 31.454C15.5418 30.709 30.2938 20.649 31.4418 18.268C32.4768 16.123 32.6768 12.434 31.3118 9.93599C29.5638 8.90399 27.6928 8.72999 25.9998 9.99999Z" fill="#CCD6DD"/>
<path d="M32.0178 6.52108C31.9062 6.41594 31.7717 6.33803 31.625 6.29345C31.4782 6.24887 31.3231 6.23882 31.1718 6.26408L1.79584 11.0971C1.55751 11.1364 1.34146 11.2606 1.1876 11.4468C1.03374 11.633 0.952486 11.8686 0.958843 12.1101C0.984843 13.1201 0.977843 13.8561 0.968843 14.6831C0.963843 15.1431 0.958843 15.6311 0.958843 16.2081C0.958843 16.5051 1.09084 16.7881 1.31984 16.9781C3.35284 18.6651 10.0338 23.1351 11.5528 23.8951C11.7211 23.9781 11.9091 24.0126 12.0959 23.9946C12.2826 23.9765 12.4606 23.9068 12.6098 23.7931C15.1658 21.8261 29.0928 13.8631 31.2728 12.9181C31.4376 12.8466 31.5801 12.7321 31.6853 12.5866C31.7905 12.4411 31.8546 12.2699 31.8708 12.0911C31.9958 10.7191 32.3288 7.35008 32.3288 7.35008C32.3441 7.1973 32.324 7.04305 32.2701 6.89928C32.2162 6.75552 32.1298 6.62611 32.0178 6.52108Z" fill="#A0041E"/>
<path d="M32.0852 6.58898C30.0652 4.29398 22.4582 1.01498 21.1682 0.958978C21.0885 0.954938 21.0085 0.960986 20.9302 0.976978C10.8242 2.99098 4.21123 8.78298 1.72123 10.964L1.30523 11.326C1.19115 11.4251 1.10092 11.5487 1.04131 11.6875C0.981694 11.8264 0.954226 11.9769 0.960956 12.1279C0.967687 12.2789 1.00844 12.4263 1.08018 12.5594C1.15192 12.6924 1.25278 12.8074 1.37523 12.896C1.71423 13.139 9.69123 18.856 11.6322 19.954C11.8145 20.0559 12.024 20.0986 12.2317 20.0762C12.4393 20.0538 12.6349 19.9674 12.7912 19.829C16.7062 16.33 29.8912 8.86798 31.6902 8.18498C31.8413 8.12757 31.9762 8.03439 32.0834 7.91343C32.1906 7.79247 32.2669 7.64733 32.3057 7.49043C32.3446 7.33354 32.3448 7.16957 32.3064 7.01258C32.268 6.85558 32.1921 6.71023 32.0852 6.58898Z" fill="#DD2E44"/>
<path d="M9.16609 17.4169C8.9306 17.4165 8.70278 17.3331 8.52278 17.1813C8.34277 17.0294 8.22212 16.8189 8.18209 16.5869L8.13609 16.3199C7.73809 14.0119 7.28709 11.3949 6.46709 8.89488C6.39102 8.64472 6.41595 8.37472 6.53654 8.14272C6.65714 7.91072 6.8638 7.73518 7.11226 7.65371C7.36071 7.57224 7.63119 7.59133 7.86575 7.70688C8.1003 7.82243 8.28027 8.02525 8.36709 8.27188C9.23309 10.9109 9.69709 13.6039 10.1061 15.9799L10.1521 16.2459C10.1772 16.3896 10.1705 16.5371 10.1326 16.678C10.0946 16.8189 10.0262 16.9497 9.93219 17.0613C9.83821 17.173 9.72092 17.2626 9.58856 17.324C9.45621 17.3855 9.312 17.4172 9.16609 17.4169ZM15.2081 17.1669C14.9517 17.1667 14.7051 17.068 14.5194 16.8912C14.3336 16.7144 14.2229 16.473 14.2101 16.2169C14.1331 14.6769 13.0241 8.24388 12.0201 5.51188C11.9747 5.38864 11.9541 5.25766 11.9593 5.12644C11.9646 4.99521 11.9956 4.8663 12.0507 4.74707C12.1619 4.50627 12.3642 4.31952 12.6131 4.22788C12.862 4.13625 13.1371 4.14725 13.3779 4.25846C13.4971 4.31352 13.6044 4.39153 13.6934 4.48803C13.7825 4.58454 13.8517 4.69764 13.8971 4.82088C14.9611 7.71588 16.1141 14.2559 16.2071 16.1159C16.2142 16.2514 16.1935 16.3869 16.1465 16.5142C16.0995 16.6414 16.027 16.7578 15.9335 16.8561C15.8401 16.9545 15.7275 17.0328 15.6028 17.0862C15.4781 17.1396 15.3438 17.1671 15.2081 17.1669ZM20.8331 13.3749C20.5937 13.3746 20.3623 13.2885 20.181 13.1322C19.9997 12.9758 19.8805 12.7596 19.8451 12.5229L19.7321 11.7359C19.4391 9.67488 18.8931 5.83888 18.0521 3.31588C18.0085 3.19082 17.9902 3.05835 17.9982 2.92616C18.0063 2.79396 18.0405 2.66468 18.0989 2.54582C18.1573 2.42696 18.2387 2.32088 18.3385 2.23374C18.4382 2.14661 18.5542 2.08015 18.6799 2.03823C18.8055 1.99631 18.9382 1.97977 19.0703 1.98955C19.2023 1.99933 19.3312 2.03525 19.4492 2.09523C19.5673 2.1552 19.6723 2.23803 19.7581 2.33891C19.8439 2.43979 19.9088 2.55671 19.9491 2.68288C20.8471 5.37788 21.4101 9.32988 21.7121 11.4539L21.8241 12.2259C21.8456 12.3684 21.836 12.5138 21.796 12.6523C21.756 12.7907 21.6866 12.9189 21.5925 13.028C21.4984 13.1371 21.3818 13.2246 21.2507 13.2845C21.1197 13.3444 20.9772 13.3752 20.8331 13.3749ZM26.4991 9.95788C26.2512 9.95761 26.0122 9.86528 25.8286 9.6988C25.6449 9.53232 25.5296 9.30356 25.5051 9.05688C25.3191 7.19388 25.0321 5.83688 24.5161 4.37288C24.4703 4.24855 24.4497 4.11636 24.4554 3.98399C24.4611 3.85162 24.4931 3.7217 24.5495 3.6018C24.6058 3.48189 24.6855 3.37438 24.7837 3.28551C24.882 3.19664 24.997 3.12819 25.1219 3.08413C25.2469 3.04007 25.3793 3.02128 25.5116 3.02886C25.6439 3.03643 25.7734 3.07022 25.8925 3.12825C26.0116 3.18629 26.118 3.26742 26.2055 3.36692C26.2929 3.46643 26.3598 3.58232 26.4021 3.70788C26.9671 5.31188 27.2951 6.85188 27.4951 8.85788C27.5091 8.99702 27.4937 9.13755 27.45 9.27039C27.4063 9.40322 27.3352 9.52542 27.2414 9.62908C27.1475 9.73274 27.033 9.81556 26.9051 9.8722C26.7772 9.92884 26.6389 9.95802 26.4991 9.95788Z" fill="#EA596E"/>
<path d="M32.136 23C30.422 21.765 28.081 21 25.5 21C22.919 21 20.578 21.765 18.864 23H16V28C16 31.859 20.262 35 25.5 35C30.738 35 35 31.859 35 28V23H32.136Z" fill="#292F33"/>
<path d="M25.5 30C30.7467 30 35 26.866 35 23C35 19.134 30.7467 16 25.5 16C20.2533 16 16 19.134 16 23C16 26.866 20.2533 30 25.5 30Z" fill="#292F33"/>
<path d="M32.583 23C32.583 25.762 29.412 28 25.5 28C21.588 28 18.417 25.762 18.417 23C18.417 20.238 21.588 18 25.5 18C29.412 18 32.583 20.238 32.583 23Z" fill="#E1E8ED"/>
<path d="M25.5 28.833C21.135 28.833 17.583 26.217 17.583 23C17.583 19.783 21.135 17.167 25.5 17.167C29.865 17.167 33.416 19.784 33.416 23C33.416 26.216 29.865 28.833 25.5 28.833ZM25.5 18.833C22.054 18.833 19.25 20.702 19.25 23C19.25 25.298 22.054 27.167 25.5 27.167C28.946 27.167 31.75 25.298 31.75 23C31.75 20.702 28.946 18.833 25.5 18.833Z" fill="#E1E8ED"/>
<path d="M21.209 22.5419C21.209 22.1199 23.015 22.2069 25.5 22.2069C27.985 22.2069 29.709 21.6609 29.709 22.0829C29.709 23.8579 27.985 25.6349 25.5 25.6349C23.015 25.6349 21.209 24.3169 21.209 22.5419Z" fill="#77B255"/>
<path d="M25.5 26.135C22.724 26.135 20.709 24.624 20.709 22.542C20.709 22.37 20.778 22.206 20.904 22.081C21.282 21.704 22.101 21.688 24.407 21.703L25.5 21.707C26.594 21.707 27.554 21.597 28.256 21.516C29.249 21.403 29.699 21.351 30.002 21.62L30.17 21.769L30.209 22.082C30.209 24.031 28.408 26.135 25.5 26.135ZM21.723 22.777C21.88 24.157 23.42 25.134 25.5 25.134C27.546 25.134 28.974 23.791 29.183 22.427C28.963 22.44 28.655 22.476 28.371 22.508C27.645 22.592 26.652 22.706 25.501 22.706L24.402 22.702C23.352 22.696 22.183 22.691 21.723 22.777Z" fill="#77B255"/>
<path d="M30 22C30 22 28 21 25 22C22.643 22.786 21 24.56 21 22.785C21 21.01 23.015 19.572 25.5 19.572C27.985 19.572 30 21 30 22Z" fill="#F4900C"/>
<path d="M21.446 24.05C21.2812 24.0521 21.1191 24.0082 20.978 23.923C20.5 23.635 20.5 22.995 20.5 22.785C20.5 20.738 22.743 19.072 25.5 19.072C28.27 19.072 30.5 20.674 30.5 22C30.5 22.173 30.41 22.334 30.263 22.426C30.1907 22.4702 30.1085 22.4954 30.0238 22.4993C29.9392 22.5031 29.855 22.4855 29.779 22.448C29.746 22.431 27.892 21.562 25.159 22.474C24.402 22.726 23.724 23.084 23.127 23.401C22.445 23.762 21.902 24.05 21.446 24.05ZM25.5 20.072C23.294 20.072 21.5 21.289 21.5 22.785C21.5 22.912 21.51 22.993 21.521 23.042C21.753 22.997 22.27 22.724 22.659 22.518C23.26 22.201 24.008 21.804 24.843 21.526C26.539 20.961 27.94 20.997 28.886 21.16C28.21 20.617 27.016 20.072 25.5 20.072Z" fill="#F4900C"/>
</svg>

